<svg version="1.1" class="clearos-svg clearfoundation app-vendor-clearfoundation app-free app-category-network app-sub-category-infrastructure" viewBox="0 0 400 400" preserveAspectRatio="xMinYMin" xmlns="http://www.w3.org/2000/svg" xmlns:xlink= "http://www.w3.org/1999/xlink">
<path fill="#AA0707" d="M91.666,184.647"/>
<path fill="#AA0707" d="M123.245,247.805"/>
<path fill="#AA0707" d="M91.666,184.647"/>
<path fill="#AA0707" d="M123.245,247.805"/>
<g>
	<polygon fill="#686868" points="48.358,53.151 48.358,69.162 164.808,125.32 48.358,197.147 48.358,214.543 191.669,125.508 	"/>
	<rect x="137.409" y="214.543" fill="#686868" width="228.173" height="16.695"/>
	<path fill="#686868" d="M375.299,3.213H24.701c-9.212,0-16.695,7.483-16.695,16.695v360.184c0,9.229,7.483,16.695,16.695,16.695
		h350.598c9.229,0,16.695-7.467,16.695-16.695V19.908C391.994,10.696,384.525,3.213,375.299,3.213z M380.875,369.657
		c0,8.69-7.044,15.7-15.718,15.7H34.85c-8.683,0-15.726-7.01-15.726-15.7V30.342c0-8.682,7.043-15.725,15.726-15.725h330.274
		c8.706,0,15.733,7.043,15.733,15.725L380.875,369.657L380.875,369.657z"/>
</g>
</svg>
